REM DIRINDEX 1\3,1\4,1\5,1\6,1\2\7,1\2\8,1\2\9,1\10
REM DIRNAME folder01,folder02,folder03,folder04,folder05,folder06,folder07,folder08,folder09,folder10
TITLE ""
FILE "1-04 Level 1-028-037.mp3" MP3
  TRACK 01 AUDIO
    TITLE "0:"
    INDEX 01 00:00:00
  TRACK 02 AUDIO
    TITLE "7:cjc056_0090"
    INDEX 01 00:00:05
  TRACK 03 AUDIO
    TITLE "0:"
    INDEX 01 00:01:03
  TRACK 04 AUDIO
    TITLE "8:cjc056_0091"
    INDEX 01 00:01:21
  TRACK 05 AUDIO
    TITLE "0:"
    INDEX 01 00:02:26
  TRACK 06 AUDIO
    TITLE "9:cjc056_0092"
    INDEX 01 00:02:42
  TRACK 07 AUDIO
    TITLE "0:"
    INDEX 01 00:04:17
  TRACK 08 AUDIO
    TITLE "8:cjc056_0093"
    INDEX 01 00:04:44
  TRACK 09 AUDIO
    TITLE "0:"
    INDEX 01 00:06:18
  TRACK 10 AUDIO
    TITLE "9:cjc056_0094"
    INDEX 01 00:06:31
  TRACK 11 AUDIO
    TITLE "0:"
    INDEX 01 00:08:07
  TRACK 12 AUDIO
    TITLE "7:cjc056_0095"
    INDEX 01 00:08:60
  TRACK 13 AUDIO
    TITLE "0:"
    INDEX 01 00:09:59
  TRACK 14 AUDIO
    TITLE "8:cjc056_0096"
    INDEX 01 00:09:71
  TRACK 15 AUDIO
    TITLE "0:"
    INDEX 01 00:10:74
  TRACK 16 AUDIO
    TITLE "9:cjc056_0097"
    INDEX 01 00:11:15
  TRACK 17 AUDIO
    TITLE "0:"
    INDEX 01 00:12:52
  TRACK 18 AUDIO
    TITLE "7:cjc056_0098"
    INDEX 01 00:13:28
  TRACK 19 AUDIO
    TITLE "0:"
    INDEX 01 00:14:27
  TRACK 20 AUDIO
    TITLE "8:cjc056_0099"
    INDEX 01 00:14:39
  TRACK 21 AUDIO
    TITLE "0:"
    INDEX 01 00:16:04
  TRACK 22 AUDIO
    TITLE "9:cjc056_0100"
    INDEX 01 00:16:20
  TRACK 23 AUDIO
    TITLE "0:"
    INDEX 01 00:17:57
  TRACK 24 AUDIO
    TITLE "7:cjc056_0101"
    INDEX 01 00:18:35
  TRACK 25 AUDIO
    TITLE "0:"
    INDEX 01 00:19:30
  TRACK 26 AUDIO
    TITLE "8:cjc056_0102"
    INDEX 01 00:19:42
  TRACK 27 AUDIO
    TITLE "0:"
    INDEX 01 00:21:02
  TRACK 28 AUDIO
    TITLE "9:cjc056_0103"
    INDEX 01 00:21:17
  TRACK 29 AUDIO
    TITLE "0:"
    INDEX 01 00:22:60
  TRACK 30 AUDIO
    TITLE "7:cjc056_0104"
    INDEX 01 00:23:38
  TRACK 31 AUDIO
    TITLE "0:"
    INDEX 01 00:24:41
  TRACK 32 AUDIO
    TITLE "8:cjc056_0105"
    INDEX 01 00:24:55
  TRACK 33 AUDIO
    TITLE "0:"
    INDEX 01 00:25:70
  TRACK 34 AUDIO
    TITLE "9:cjc056_0106"
    INDEX 01 00:26:07
  TRACK 35 AUDIO
    TITLE "0:"
    INDEX 01 00:27:49
  TRACK 36 AUDIO
    TITLE "7:cjc056_0107"
    INDEX 01 00:28:35
  TRACK 37 AUDIO
    TITLE "0:"
    INDEX 01 00:29:33
  TRACK 38 AUDIO
    TITLE "8:cjc056_0108"
    INDEX 01 00:29:44
  TRACK 39 AUDIO
    TITLE "0:"
    INDEX 01 00:30:73
  TRACK 40 AUDIO
    TITLE "9:cjc056_0109"
    INDEX 01 00:31:10
  TRACK 41 AUDIO
    TITLE "0:"
    INDEX 01 00:32:74
  TRACK 42 AUDIO
    TITLE "8:cjc056_0110"
    INDEX 01 00:33:24
  TRACK 43 AUDIO
    TITLE "0:"
    INDEX 01 00:35:66
  TRACK 44 AUDIO
    TITLE "9:cjc056_0111"
    INDEX 01 00:36:05
  TRACK 45 AUDIO
    TITLE "0:"
    INDEX 01 00:38:30
  TRACK 46 AUDIO
    TITLE "7:cjc056_0112"
    INDEX 01 00:39:05
  TRACK 47 AUDIO
    TITLE "0:"
    INDEX 01 00:40:05
  TRACK 48 AUDIO
    TITLE "8:cjc056_0113"
    INDEX 01 00:40:17
  TRACK 49 AUDIO
    TITLE "0:"
    INDEX 01 00:41:06
  TRACK 50 AUDIO
    TITLE "9:cjc056_0114"
    INDEX 01 00:41:20
  TRACK 51 AUDIO
    TITLE "0:"
    INDEX 01 00:43:31
  TRACK 52 AUDIO
    TITLE "7:cjc056_0115"
    INDEX 01 00:44:09
  TRACK 53 AUDIO
    TITLE "0:"
    INDEX 01 00:45:04
  TRACK 54 AUDIO
    TITLE "8:cjc056_0116"
    INDEX 01 00:45:18
  TRACK 55 AUDIO
    TITLE "0:"
    INDEX 01 00:46:47
  TRACK 56 AUDIO
    TITLE "9:cjc056_0117"
    INDEX 01 00:46:58
  TRACK 57 AUDIO
    TITLE "0:"
    INDEX 01 00:48:30
  TRACK 58 AUDIO
    TITLE "7:cjc056_0118"
    INDEX 01 00:49:18
  TRACK 59 AUDIO
    TITLE "0:"
    INDEX 01 00:49:74
  TRACK 60 AUDIO
    TITLE "8:cjc056_0119"
    INDEX 01 00:50:35
  TRACK 61 AUDIO
    TITLE "0:"
    INDEX 01 00:51:40
  TRACK 62 AUDIO
    TITLE "9:cjc056_0120"
    INDEX 01 00:51:54
  TRACK 63 AUDIO
    TITLE "0:"
    INDEX 01 00:53:57
  TRACK 64 AUDIO
    TITLE "7:cjc056_0121"
    INDEX 01 00:54:29
  TRACK 65 AUDIO
    TITLE "0:"
    INDEX 01 00:55:30
  TRACK 66 AUDIO
    TITLE "8:cjc056_0122"
    INDEX 01 00:55:42
  TRACK 67 AUDIO
    TITLE "0:"
    INDEX 01 00:56:49
  TRACK 68 AUDIO
    TITLE "9:cjc056_0123"
    INDEX 01 00:56:61
  TRACK 69 AUDIO
    TITLE "0:"
    INDEX 01 00:58:30
